<svg xmlns="http://www.w3.org/2000/svg" viewBox="0 0 100 100" width="100" height="100">
  <defs>
    <linearGradient id="bg" x1="0" y1="0" x2="0" y2="1">
      <stop offset="0" stop-color="#1BA9D4"></stop>
      <stop offset="1" stop-color="#0E7CA6"></stop>
    </linearGradient>
    <linearGradient id="sheen" x1="0" y1="0" x2="0" y2="0.55">
      <stop offset="0" stop-color="#ffffff" stop-opacity="0.18"></stop>
      <stop offset="1" stop-color="#ffffff" stop-opacity="0"></stop>
    </linearGradient>
  </defs>
  <rect x="0" y="0" width="100" height="100" rx="22" fill="url(#bg)"></rect>
  <rect x="0" y="0" width="100" height="100" rx="22" fill="url(#sheen)"></rect>
  <path fill-rule="evenodd" fill="#ffffff" d="&#xA;    M50 86 C 35 64 27 56 27 40 A 23 23 0 1 1 73 40 C 73 56 65 64 50 86 Z&#xA;    M50 51 C 45.5 43.5 37 42 37 35 C 37 30.5 42 28.5 46 31.5 C 47.8 32.8 49 34.6 50 36.4&#xA;    C 51 34.6 52.2 32.8 54 31.5 C 58 28.5 63 30.5 63 35 C 63 42 54.5 43.5 50 51 Z"></path>
</svg>